<svg xmlns="http://www.w3.org/2000/svg" viewBox="0 0 32 32" width="32" height="32" shape-rendering="crispEdges">
  <!-- Octagonal badge frame - dark border -->
  <rect x="10" y="2" width="12" height="1" fill="#333"/>
  <rect x="8" y="3" width="2" height="1" fill="#333"/>
  <rect x="22" y="3" width="2" height="1" fill="#333"/>
  <rect x="6" y="4" width="2" height="1" fill="#333"/>
  <rect x="24" y="4" width="2" height="1" fill="#333"/>
  <rect x="4" y="5" width="2" height="1" fill="#333"/>
  <rect x="26" y="5" width="2" height="1" fill="#333"/>
  <rect x="3" y="6" width="1" height="2" fill="#333"/>
  <rect x="28" y="6" width="1" height="2" fill="#333"/>
  <rect x="2" y="8" width="1" height="2" fill="#333"/>
  <rect x="29" y="8" width="1" height="2" fill="#333"/>
  <rect x="2" y="10" width="1" height="12" fill="#333"/>
  <rect x="29" y="10" width="1" height="12" fill="#333"/>
  <rect x="2" y="22" width="1" height="2" fill="#333"/>
  <rect x="29" y="22" width="1" height="2" fill="#333"/>
  <rect x="3" y="24" width="1" height="2" fill="#333"/>
  <rect x="28" y="24" width="1" height="2" fill="#333"/>
  <rect x="4" y="26" width="2" height="1" fill="#333"/>
  <rect x="26" y="26" width="2" height="1" fill="#333"/>
  <rect x="6" y="27" width="2" height="1" fill="#333"/>
  <rect x="24" y="27" width="2" height="1" fill="#333"/>
  <rect x="8" y="28" width="2" height="1" fill="#333"/>
  <rect x="22" y="28" width="2" height="1" fill="#333"/>
  <rect x="10" y="29" width="12" height="1" fill="#333"/>
  <!-- Octagonal badge fill - yellow -->
  <rect x="10" y="3" width="12" height="1" fill="#FDD835"/>
  <rect x="8" y="4" width="16" height="1" fill="#FDD835"/>
  <rect x="6" y="5" width="20" height="1" fill="#FDD835"/>
  <rect x="4" y="6" width="24" height="2" fill="#FDD835"/>
  <rect x="3" y="8" width="26" height="2" fill="#FDD835"/>
  <rect x="3" y="10" width="26" height="12" fill="#FDD835"/>
  <rect x="3" y="22" width="26" height="2" fill="#FDD835"/>
  <rect x="4" y="24" width="24" height="2" fill="#FDD835"/>
  <rect x="6" y="26" width="20" height="1" fill="#FDD835"/>
  <rect x="8" y="27" width="16" height="1" fill="#FDD835"/>
  <rect x="10" y="28" width="12" height="1" fill="#FDD835"/>
  <!-- Lightning bolt icon -->
  <rect x="16" y="6" width="4" height="1" fill="#F57F17"/>
  <rect x="15" y="7" width="4" height="1" fill="#F57F17"/>
  <rect x="14" y="8" width="4" height="1" fill="#F57F17"/>
  <rect x="13" y="9" width="4" height="1" fill="#F57F17"/>
  <rect x="12" y="10" width="4" height="1" fill="#F57F17"/>
  <rect x="11" y="11" width="4" height="1" fill="#F57F17"/>
  <rect x="10" y="12" width="4" height="1" fill="#F57F17"/>
  <!-- Lightning bolt horizontal bar -->
  <rect x="10" y="13" width="10" height="1" fill="#F57F17"/>
  <rect x="11" y="14" width="9" height="1" fill="#F57F17"/>
  <!-- Lightning bolt lower half -->
  <rect x="17" y="15" width="4" height="1" fill="#F57F17"/>
  <rect x="16" y="16" width="4" height="1" fill="#F57F17"/>
  <rect x="15" y="17" width="4" height="1" fill="#F57F17"/>
  <rect x="14" y="18" width="4" height="1" fill="#F57F17"/>
  <rect x="13" y="19" width="4" height="1" fill="#F57F17"/>
  <rect x="12" y="20" width="4" height="1" fill="#F57F17"/>
  <rect x="11" y="21" width="4" height="1" fill="#F57F17"/>
  <rect x="10" y="22" width="4" height="1" fill="#F57F17"/>
  <!-- Lightning highlights -->
  <rect x="16" y="7" width="1" height="1" fill="#FFF9C4"/>
  <rect x="15" y="8" width="1" height="1" fill="#FFF9C4"/>
  <rect x="14" y="9" width="1" height="1" fill="#FFF9C4"/>
  <rect x="13" y="10" width="1" height="1" fill="#FFF9C4"/>
  <rect x="12" y="11" width="1" height="1" fill="#FFF9C4"/>
  <rect x="11" y="12" width="1" height="1" fill="#FFF9C4"/>
  <rect x="18" y="15" width="1" height="1" fill="#FFF9C4"/>
  <rect x="17" y="16" width="1" height="1" fill="#FFF9C4"/>
  <rect x="16" y="17" width="1" height="1" fill="#FFF9C4"/>
  <!-- Fire sparks around bolt -->
  <rect x="8" y="14" width="1" height="1" fill="#FF6F00"/>
  <rect x="22" y="12" width="1" height="1" fill="#FF6F00"/>
  <rect x="9" y="8" width="1" height="1" fill="#FF6F00"/>
  <rect x="21" y="19" width="1" height="1" fill="#FF6F00"/>
  <rect x="7" y="17" width="1" height="1" fill="#FF8F00"/>
  <rect x="23" y="16" width="1" height="1" fill="#FF8F00"/>
</svg>