<svg xmlns="http://www.w3.org/2000/svg" viewBox="0 0 32 32" width="32" height="32" shape-rendering="crispEdges">
  <!-- Octagonal badge frame - dark border -->
  <rect x="10" y="2" width="12" height="1" fill="#333"/>
  <rect x="8" y="3" width="2" height="1" fill="#333"/>
  <rect x="22" y="3" width="2" height="1" fill="#333"/>
  <rect x="6" y="4" width="2" height="1" fill="#333"/>
  <rect x="24" y="4" width="2" height="1" fill="#333"/>
  <rect x="4" y="5" width="2" height="1" fill="#333"/>
  <rect x="26" y="5" width="2" height="1" fill="#333"/>
  <rect x="3" y="6" width="1" height="2" fill="#333"/>
  <rect x="28" y="6" width="1" height="2" fill="#333"/>
  <rect x="2" y="8" width="1" height="2" fill="#333"/>
  <rect x="29" y="8" width="1" height="2" fill="#333"/>
  <rect x="2" y="10" width="1" height="12" fill="#333"/>
  <rect x="29" y="10" width="1" height="12" fill="#333"/>
  <rect x="2" y="22" width="1" height="2" fill="#333"/>
  <rect x="29" y="22" width="1" height="2" fill="#333"/>
  <rect x="3" y="24" width="1" height="2" fill="#333"/>
  <rect x="28" y="24" width="1" height="2" fill="#333"/>
  <rect x="4" y="26" width="2" height="1" fill="#333"/>
  <rect x="26" y="26" width="2" height="1" fill="#333"/>
  <rect x="6" y="27" width="2" height="1" fill="#333"/>
  <rect x="24" y="27" width="2" height="1" fill="#333"/>
  <rect x="8" y="28" width="2" height="1" fill="#333"/>
  <rect x="22" y="28" width="2" height="1" fill="#333"/>
  <rect x="10" y="29" width="12" height="1" fill="#333"/>
  <!-- Octagonal badge fill - diamond blue -->
  <rect x="10" y="3" width="12" height="1" fill="#55CDFC"/>
  <rect x="8" y="4" width="16" height="1" fill="#55CDFC"/>
  <rect x="6" y="5" width="20" height="1" fill="#55CDFC"/>
  <rect x="4" y="6" width="24" height="2" fill="#55CDFC"/>
  <rect x="3" y="8" width="26" height="2" fill="#55CDFC"/>
  <rect x="3" y="10" width="26" height="12" fill="#55CDFC"/>
  <rect x="3" y="22" width="26" height="2" fill="#55CDFC"/>
  <rect x="4" y="24" width="24" height="2" fill="#55CDFC"/>
  <rect x="6" y="26" width="20" height="1" fill="#55CDFC"/>
  <rect x="8" y="27" width="16" height="1" fill="#55CDFC"/>
  <rect x="10" y="28" width="12" height="1" fill="#55CDFC"/>
  <!-- Diamond sword blade -->
  <rect x="20" y="5" width="2" height="1" fill="#4FC3F7"/>
  <rect x="19" y="6" width="2" height="1" fill="#4FC3F7"/>
  <rect x="18" y="7" width="2" height="1" fill="#4FC3F7"/>
  <rect x="17" y="8" width="2" height="1" fill="#4FC3F7"/>
  <rect x="16" y="9" width="2" height="1" fill="#4FC3F7"/>
  <rect x="15" y="10" width="2" height="1" fill="#4FC3F7"/>
  <rect x="14" y="11" width="2" height="1" fill="#4FC3F7"/>
  <rect x="13" y="12" width="2" height="1" fill="#4FC3F7"/>
  <rect x="12" y="13" width="2" height="1" fill="#4FC3F7"/>
  <!-- Blade edge highlight -->
  <rect x="21" y="5" width="1" height="1" fill="#B3E5FC"/>
  <rect x="20" y="6" width="1" height="1" fill="#B3E5FC"/>
  <rect x="19" y="7" width="1" height="1" fill="#B3E5FC"/>
  <rect x="18" y="8" width="1" height="1" fill="#B3E5FC"/>
  <rect x="17" y="9" width="1" height="1" fill="#B3E5FC"/>
  <rect x="16" y="10" width="1" height="1" fill="#B3E5FC"/>
  <rect x="15" y="11" width="1" height="1" fill="#B3E5FC"/>
  <rect x="14" y="12" width="1" height="1" fill="#B3E5FC"/>
  <rect x="13" y="13" width="1" height="1" fill="#B3E5FC"/>
  <!-- Blade dark edge -->
  <rect x="20" y="6" width="1" height="1" fill="#0288D1"/>
  <rect x="19" y="7" width="1" height="1" fill="#0288D1"/>
  <rect x="18" y="8" width="1" height="1" fill="#0288D1"/>
  <rect x="17" y="9" width="1" height="1" fill="#0288D1"/>
  <rect x="16" y="10" width="1" height="1" fill="#0288D1"/>
  <rect x="15" y="11" width="1" height="1" fill="#0288D1"/>
  <rect x="14" y="12" width="1" height="1" fill="#0288D1"/>
  <rect x="13" y="13" width="1" height="1" fill="#0288D1"/>
  <!-- Crossguard -->
  <rect x="10" y="14" width="5" height="1" fill="#795548"/>
  <rect x="13" y="13" width="1" height="3" fill="#795548"/>
  <rect x="10" y="14" width="1" height="1" fill="#8D6E63"/>
  <!-- Handle -->
  <rect x="11" y="15" width="2" height="1" fill="#5D4037"/>
  <rect x="10" y="16" width="2" height="1" fill="#5D4037"/>
  <rect x="9" y="17" width="2" height="1" fill="#5D4037"/>
  <rect x="8" y="18" width="2" height="1" fill="#5D4037"/>
  <!-- Pommel -->
  <rect x="7" y="19" width="2" height="1" fill="#795548"/>
  <rect x="7" y="20" width="2" height="1" fill="#5D4037"/>
  <!-- Sparkle effects -->
  <!-- Top-right sparkle -->
  <rect x="24" y="7" width="1" height="1" fill="#FFF"/>
  <rect x="23" y="8" width="3" height="1" fill="#FFF"/>
  <rect x="24" y="9" width="1" height="1" fill="#FFF"/>
  <!-- Bottom-left sparkle -->
  <rect x="7" y="23" width="1" height="1" fill="#FFF"/>
  <rect x="6" y="24" width="3" height="1" fill="#FFF"/>
  <rect x="7" y="25" width="1" height="1" fill="#FFF"/>
  <!-- Small sparkle -->
  <rect x="21" y="14" width="1" height="1" fill="#FFF"/>
  <rect x="5" y="10" width="1" height="1" fill="#E0F7FA"/>
  <rect x="18" y="21" width="1" height="1" fill="#E0F7FA"/>
  <!-- Upward arrow / evolution indicator -->
  <rect x="22" y="18" width="1" height="5" fill="#FFF"/>
  <rect x="21" y="19" width="1" height="1" fill="#FFF"/>
  <rect x="23" y="19" width="1" height="1" fill="#FFF"/>
  <rect x="20" y="20" width="1" height="1" fill="#FFF"/>
  <rect x="24" y="20" width="1" height="1" fill="#FFF"/>
</svg>