<svg xmlns="http://www.w3.org/2000/svg" viewBox="0 0 32 32" width="32" height="32" shape-rendering="crispEdges">
  <!-- 100 Kills Badge - Orange badge with sword + "C" (Centurion) -->

  <!-- Badge border (dark) - octagonal shape -->
  <!-- Row 0 -->
  <rect x="10" y="0" width="12" height="1" fill="#1A1A1A"/>
  <!-- Row 1 -->
  <rect x="8" y="1" width="2" height="1" fill="#1A1A1A"/>
  <rect x="10" y="1" width="12" height="1" fill="#333333"/>
  <rect x="22" y="1" width="2" height="1" fill="#1A1A1A"/>
  <!-- Row 2 -->
  <rect x="6" y="2" width="2" height="1" fill="#1A1A1A"/>
  <rect x="8" y="2" width="1" height="1" fill="#333333"/>
  <rect x="9" y="2" width="1" height="1" fill="#8B4500"/>
  <rect x="10" y="2" width="12" height="1" fill="#CC6600"/>
  <rect x="22" y="2" width="1" height="1" fill="#8B4500"/>
  <rect x="23" y="2" width="1" height="1" fill="#333333"/>
  <rect x="24" y="2" width="2" height="1" fill="#1A1A1A"/>
  <!-- Row 3 -->
  <rect x="5" y="3" width="1" height="1" fill="#1A1A1A"/>
  <rect x="6" y="3" width="1" height="1" fill="#333333"/>
  <rect x="7" y="3" width="1" height="1" fill="#8B4500"/>
  <rect x="8" y="3" width="16" height="1" fill="#E87800"/>
  <rect x="24" y="3" width="1" height="1" fill="#8B4500"/>
  <rect x="25" y="3" width="1" height="1" fill="#333333"/>
  <rect x="26" y="3" width="1" height="1" fill="#1A1A1A"/>
  <!-- Row 4 -->
  <rect x="4" y="4" width="1" height="1" fill="#1A1A1A"/>
  <rect x="5" y="4" width="1" height="1" fill="#333333"/>
  <rect x="6" y="4" width="1" height="1" fill="#CC6600"/>
  <rect x="7" y="4" width="18" height="1" fill="#FF8C00"/>
  <rect x="25" y="4" width="1" height="1" fill="#CC6600"/>
  <rect x="26" y="4" width="1" height="1" fill="#333333"/>
  <rect x="27" y="4" width="1" height="1" fill="#1A1A1A"/>
  <!-- Row 5 -->
  <rect x="3" y="5" width="1" height="1" fill="#1A1A1A"/>
  <rect x="4" y="5" width="1" height="1" fill="#333333"/>
  <rect x="5" y="5" width="1" height="1" fill="#CC6600"/>
  <rect x="6" y="5" width="20" height="1" fill="#FF8C00"/>
  <rect x="26" y="5" width="1" height="1" fill="#CC6600"/>
  <rect x="27" y="5" width="1" height="1" fill="#333333"/>
  <rect x="28" y="5" width="1" height="1" fill="#1A1A1A"/>
  <!-- Row 6 -->
  <rect x="2" y="6" width="1" height="1" fill="#1A1A1A"/>
  <rect x="3" y="6" width="1" height="1" fill="#333333"/>
  <rect x="4" y="6" width="1" height="1" fill="#8B4500"/>
  <rect x="5" y="6" width="22" height="1" fill="#FF8C00"/>
  <rect x="27" y="6" width="1" height="1" fill="#8B4500"/>
  <rect x="28" y="6" width="1" height="1" fill="#333333"/>
  <rect x="29" y="6" width="1" height="1" fill="#1A1A1A"/>
  <!-- Row 7 -->
  <rect x="1" y="7" width="1" height="1" fill="#1A1A1A"/>
  <rect x="2" y="7" width="1" height="1" fill="#333333"/>
  <rect x="3" y="7" width="1" height="1" fill="#8B4500"/>
  <rect x="4" y="7" width="24" height="1" fill="#FF8C00"/>
  <rect x="28" y="7" width="1" height="1" fill="#8B4500"/>
  <rect x="29" y="7" width="1" height="1" fill="#333333"/>
  <rect x="30" y="7" width="1" height="1" fill="#1A1A1A"/>
  <!-- Row 8 -->
  <rect x="1" y="8" width="1" height="1" fill="#1A1A1A"/>
  <rect x="2" y="8" width="1" height="1" fill="#333333"/>
  <rect x="3" y="8" width="1" height="1" fill="#CC6600"/>
  <rect x="4" y="8" width="24" height="1" fill="#FF8C00"/>
  <rect x="28" y="8" width="1" height="1" fill="#CC6600"/>
  <rect x="29" y="8" width="1" height="1" fill="#333333"/>
  <rect x="30" y="8" width="1" height="1" fill="#1A1A1A"/>
  <!-- Rows 9-22: full width -->
  <rect x="0" y="9" width="1" height="1" fill="#1A1A1A"/>
  <rect x="1" y="9" width="1" height="1" fill="#333333"/>
  <rect x="2" y="9" width="1" height="1" fill="#8B4500"/>
  <rect x="3" y="9" width="26" height="1" fill="#FF8C00"/>
  <rect x="29" y="9" width="1" height="1" fill="#8B4500"/>
  <rect x="30" y="9" width="1" height="1" fill="#333333"/>
  <rect x="31" y="9" width="1" height="1" fill="#1A1A1A"/>
  <rect x="0" y="10" width="1" height="1" fill="#1A1A1A"/>
  <rect x="1" y="10" width="1" height="1" fill="#333333"/>
  <rect x="2" y="10" width="1" height="1" fill="#CC6600"/>
  <rect x="3" y="10" width="26" height="1" fill="#FF8C00"/>
  <rect x="29" y="10" width="1" height="1" fill="#CC6600"/>
  <rect x="30" y="10" width="1" height="1" fill="#333333"/>
  <rect x="31" y="10" width="1" height="1" fill="#1A1A1A"/>
  <rect x="0" y="11" width="1" height="1" fill="#1A1A1A"/>
  <rect x="1" y="11" width="1" height="1" fill="#333333"/>
  <rect x="2" y="11" width="1" height="1" fill="#CC6600"/>
  <rect x="3" y="11" width="26" height="1" fill="#FF8C00"/>
  <rect x="29" y="11" width="1" height="1" fill="#CC6600"/>
  <rect x="30" y="11" width="1" height="1" fill="#333333"/>
  <rect x="31" y="11" width="1" height="1" fill="#1A1A1A"/>
  <rect x="0" y="12" width="1" height="1" fill="#1A1A1A"/>
  <rect x="1" y="12" width="1" height="1" fill="#333333"/>
  <rect x="2" y="12" width="1" height="1" fill="#CC6600"/>
  <rect x="3" y="12" width="26" height="1" fill="#FF8C00"/>
  <rect x="29" y="12" width="1" height="1" fill="#CC6600"/>
  <rect x="30" y="12" width="1" height="1" fill="#333333"/>
  <rect x="31" y="12" width="1" height="1" fill="#1A1A1A"/>
  <rect x="0" y="13" width="1" height="1" fill="#1A1A1A"/>
  <rect x="1" y="13" width="1" height="1" fill="#333333"/>
  <rect x="2" y="13" width="1" height="1" fill="#CC6600"/>
  <rect x="3" y="13" width="26" height="1" fill="#FF8C00"/>
  <rect x="29" y="13" width="1" height="1" fill="#CC6600"/>
  <rect x="30" y="13" width="1" height="1" fill="#333333"/>
  <rect x="31" y="13" width="1" height="1" fill="#1A1A1A"/>
  <rect x="0" y="14" width="1" height="1" fill="#1A1A1A"/>
  <rect x="1" y="14" width="1" height="1" fill="#333333"/>
  <rect x="2" y="14" width="1" height="1" fill="#CC6600"/>
  <rect x="3" y="14" width="26" height="1" fill="#FF8C00"/>
  <rect x="29" y="14" width="1" height="1" fill="#CC6600"/>
  <rect x="30" y="14" width="1" height="1" fill="#333333"/>
  <rect x="31" y="14" width="1" height="1" fill="#1A1A1A"/>
  <rect x="0" y="15" width="1" height="1" fill="#1A1A1A"/>
  <rect x="1" y="15" width="1" height="1" fill="#333333"/>
  <rect x="2" y="15" width="1" height="1" fill="#CC6600"/>
  <rect x="3" y="15" width="26" height="1" fill="#FF8C00"/>
  <rect x="29" y="15" width="1" height="1" fill="#CC6600"/>
  <rect x="30" y="15" width="1" height="1" fill="#333333"/>
  <rect x="31" y="15" width="1" height="1" fill="#1A1A1A"/>
  <rect x="0" y="16" width="1" height="1" fill="#1A1A1A"/>
  <rect x="1" y="16" width="1" height="1" fill="#333333"/>
  <rect x="2" y="16" width="1" height="1" fill="#CC6600"/>
  <rect x="3" y="16" width="26" height="1" fill="#FF8C00"/>
  <rect x="29" y="16" width="1" height="1" fill="#CC6600"/>
  <rect x="30" y="16" width="1" height="1" fill="#333333"/>
  <rect x="31" y="16" width="1" height="1" fill="#1A1A1A"/>
  <rect x="0" y="17" width="1" height="1" fill="#1A1A1A"/>
  <rect x="1" y="17" width="1" height="1" fill="#333333"/>
  <rect x="2" y="17" width="1" height="1" fill="#CC6600"/>
  <rect x="3" y="17" width="26" height="1" fill="#FF8C00"/>
  <rect x="29" y="17" width="1" height="1" fill="#CC6600"/>
  <rect x="30" y="17" width="1" height="1" fill="#333333"/>
  <rect x="31" y="17" width="1" height="1" fill="#1A1A1A"/>
  <rect x="0" y="18" width="1" height="1" fill="#1A1A1A"/>
  <rect x="1" y="18" width="1" height="1" fill="#333333"/>
  <rect x="2" y="18" width="1" height="1" fill="#CC6600"/>
  <rect x="3" y="18" width="26" height="1" fill="#FF8C00"/>
  <rect x="29" y="18" width="1" height="1" fill="#CC6600"/>
  <rect x="30" y="18" width="1" height="1" fill="#333333"/>
  <rect x="31" y="18" width="1" height="1" fill="#1A1A1A"/>
  <rect x="0" y="19" width="1" height="1" fill="#1A1A1A"/>
  <rect x="1" y="19" width="1" height="1" fill="#333333"/>
  <rect x="2" y="19" width="1" height="1" fill="#CC6600"/>
  <rect x="3" y="19" width="26" height="1" fill="#FF8C00"/>
  <rect x="29" y="19" width="1" height="1" fill="#CC6600"/>
  <rect x="30" y="19" width="1" height="1" fill="#333333"/>
  <rect x="31" y="19" width="1" height="1" fill="#1A1A1A"/>
  <rect x="0" y="20" width="1" height="1" fill="#1A1A1A"/>
  <rect x="1" y="20" width="1" height="1" fill="#333333"/>
  <rect x="2" y="20" width="1" height="1" fill="#CC6600"/>
  <rect x="3" y="20" width="26" height="1" fill="#FF8C00"/>
  <rect x="29" y="20" width="1" height="1" fill="#CC6600"/>
  <rect x="30" y="20" width="1" height="1" fill="#333333"/>
  <rect x="31" y="20" width="1" height="1" fill="#1A1A1A"/>
  <rect x="0" y="21" width="1" height="1" fill="#1A1A1A"/>
  <rect x="1" y="21" width="1" height="1" fill="#333333"/>
  <rect x="2" y="21" width="1" height="1" fill="#8B4500"/>
  <rect x="3" y="21" width="26" height="1" fill="#FF8C00"/>
  <rect x="29" y="21" width="1" height="1" fill="#8B4500"/>
  <rect x="30" y="21" width="1" height="1" fill="#333333"/>
  <rect x="31" y="21" width="1" height="1" fill="#1A1A1A"/>
  <rect x="0" y="22" width="1" height="1" fill="#1A1A1A"/>
  <rect x="1" y="22" width="1" height="1" fill="#333333"/>
  <rect x="2" y="22" width="1" height="1" fill="#8B4500"/>
  <rect x="3" y="22" width="26" height="1" fill="#FF8C00"/>
  <rect x="29" y="22" width="1" height="1" fill="#8B4500"/>
  <rect x="30" y="22" width="1" height="1" fill="#333333"/>
  <rect x="31" y="22" width="1" height="1" fill="#1A1A1A"/>
  <!-- Row 23 -->
  <rect x="1" y="23" width="1" height="1" fill="#1A1A1A"/>
  <rect x="2" y="23" width="1" height="1" fill="#333333"/>
  <rect x="3" y="23" width="1" height="1" fill="#CC6600"/>
  <rect x="4" y="23" width="24" height="1" fill="#FF8C00"/>
  <rect x="28" y="23" width="1" height="1" fill="#CC6600"/>
  <rect x="29" y="23" width="1" height="1" fill="#333333"/>
  <rect x="30" y="23" width="1" height="1" fill="#1A1A1A"/>
  <!-- Row 24 -->
  <rect x="1" y="24" width="1" height="1" fill="#1A1A1A"/>
  <rect x="2" y="24" width="1" height="1" fill="#333333"/>
  <rect x="3" y="24" width="1" height="1" fill="#8B4500"/>
  <rect x="4" y="24" width="1" height="1" fill="#CC6600"/>
  <rect x="5" y="24" width="22" height="1" fill="#FF8C00"/>
  <rect x="27" y="24" width="1" height="1" fill="#CC6600"/>
  <rect x="28" y="24" width="1" height="1" fill="#8B4500"/>
  <rect x="29" y="24" width="1" height="1" fill="#333333"/>
  <rect x="30" y="24" width="1" height="1" fill="#1A1A1A"/>
  <!-- Row 25 -->
  <rect x="2" y="25" width="1" height="1" fill="#1A1A1A"/>
  <rect x="3" y="25" width="1" height="1" fill="#333333"/>
  <rect x="4" y="25" width="1" height="1" fill="#8B4500"/>
  <rect x="5" y="25" width="22" height="1" fill="#FF8C00"/>
  <rect x="27" y="25" width="1" height="1" fill="#8B4500"/>
  <rect x="28" y="25" width="1" height="1" fill="#333333"/>
  <rect x="29" y="25" width="1" height="1" fill="#1A1A1A"/>
  <!-- Row 26 -->
  <rect x="3" y="26" width="1" height="1" fill="#1A1A1A"/>
  <rect x="4" y="26" width="1" height="1" fill="#333333"/>
  <rect x="5" y="26" width="1" height="1" fill="#CC6600"/>
  <rect x="6" y="26" width="20" height="1" fill="#FF8C00"/>
  <rect x="26" y="26" width="1" height="1" fill="#CC6600"/>
  <rect x="27" y="26" width="1" height="1" fill="#333333"/>
  <rect x="28" y="26" width="1" height="1" fill="#1A1A1A"/>
  <!-- Row 27 -->
  <rect x="4" y="27" width="1" height="1" fill="#1A1A1A"/>
  <rect x="5" y="27" width="1" height="1" fill="#333333"/>
  <rect x="6" y="27" width="1" height="1" fill="#CC6600"/>
  <rect x="7" y="27" width="18" height="1" fill="#E87800"/>
  <rect x="25" y="27" width="1" height="1" fill="#CC6600"/>
  <rect x="26" y="27" width="1" height="1" fill="#333333"/>
  <rect x="27" y="27" width="1" height="1" fill="#1A1A1A"/>
  <!-- Row 28 -->
  <rect x="5" y="28" width="2" height="1" fill="#1A1A1A"/>
  <rect x="7" y="28" width="1" height="1" fill="#333333"/>
  <rect x="8" y="28" width="1" height="1" fill="#8B4500"/>
  <rect x="9" y="28" width="14" height="1" fill="#CC6600"/>
  <rect x="23" y="28" width="1" height="1" fill="#8B4500"/>
  <rect x="24" y="28" width="1" height="1" fill="#333333"/>
  <rect x="25" y="28" width="2" height="1" fill="#1A1A1A"/>
  <!-- Row 29 -->
  <rect x="7" y="29" width="2" height="1" fill="#1A1A1A"/>
  <rect x="9" y="29" width="14" height="1" fill="#333333"/>
  <rect x="23" y="29" width="2" height="1" fill="#1A1A1A"/>
  <!-- Row 30 -->
  <rect x="9" y="30" width="1" height="1" fill="#1A1A1A"/>
  <rect x="10" y="30" width="12" height="1" fill="#1A1A1A"/>
  <rect x="22" y="30" width="1" height="1" fill="#1A1A1A"/>

  <!-- SWORD on left side (vertical, iron-colored) -->
  <!-- Blade tip -->
  <rect x="8" y="5" width="1" height="1" fill="#FFFFFF"/>
  <rect x="9" y="5" width="1" height="1" fill="#E0E0E0"/>
  <!-- Blade body -->
  <rect x="8" y="6" width="1" height="1" fill="#E0E0E0"/>
  <rect x="9" y="6" width="1" height="1" fill="#C0C0C0"/>
  <rect x="8" y="7" width="1" height="1" fill="#FFFFFF"/>
  <rect x="9" y="7" width="1" height="1" fill="#C0C0C0"/>
  <rect x="8" y="8" width="1" height="1" fill="#E0E0E0"/>
  <rect x="9" y="8" width="1" height="1" fill="#C0C0C0"/>
  <rect x="8" y="9" width="1" height="1" fill="#FFFFFF"/>
  <rect x="9" y="9" width="1" height="1" fill="#C0C0C0"/>
  <rect x="8" y="10" width="1" height="1" fill="#E0E0E0"/>
  <rect x="9" y="10" width="1" height="1" fill="#C0C0C0"/>
  <rect x="8" y="11" width="1" height="1" fill="#FFFFFF"/>
  <rect x="9" y="11" width="1" height="1" fill="#C0C0C0"/>
  <rect x="8" y="12" width="1" height="1" fill="#E0E0E0"/>
  <rect x="9" y="12" width="1" height="1" fill="#C0C0C0"/>
  <rect x="8" y="13" width="1" height="1" fill="#FFFFFF"/>
  <rect x="9" y="13" width="1" height="1" fill="#C0C0C0"/>
  <rect x="8" y="14" width="1" height="1" fill="#E0E0E0"/>
  <rect x="9" y="14" width="1" height="1" fill="#C0C0C0"/>
  <rect x="8" y="15" width="1" height="1" fill="#FFFFFF"/>
  <rect x="9" y="15" width="1" height="1" fill="#C0C0C0"/>
  <rect x="8" y="16" width="1" height="1" fill="#E0E0E0"/>
  <rect x="9" y="16" width="1" height="1" fill="#C0C0C0"/>
  <!-- Crossguard -->
  <rect x="6" y="17" width="1" height="1" fill="#DAA520"/>
  <rect x="7" y="17" width="1" height="1" fill="#FFD700"/>
  <rect x="8" y="17" width="1" height="1" fill="#FFD700"/>
  <rect x="9" y="17" width="1" height="1" fill="#FFD700"/>
  <rect x="10" y="17" width="1" height="1" fill="#FFD700"/>
  <rect x="11" y="17" width="1" height="1" fill="#DAA520"/>
  <!-- Handle -->
  <rect x="8" y="18" width="1" height="1" fill="#8B4513"/>
  <rect x="9" y="18" width="1" height="1" fill="#A0522D"/>
  <rect x="8" y="19" width="1" height="1" fill="#A0522D"/>
  <rect x="9" y="19" width="1" height="1" fill="#8B4513"/>
  <rect x="8" y="20" width="1" height="1" fill="#8B4513"/>
  <rect x="9" y="20" width="1" height="1" fill="#A0522D"/>
  <!-- Pommel -->
  <rect x="8" y="21" width="1" height="1" fill="#FFD700"/>
  <rect x="9" y="21" width="1" height="1" fill="#DAA520"/>

  <!-- "C" letter (Centurion) - white/cream, right side -->
  <!-- C top bar -->
  <rect x="16" y="8" width="1" height="1" fill="#FFFFCC"/>
  <rect x="17" y="8" width="1" height="1" fill="#FFFFCC"/>
  <rect x="18" y="8" width="1" height="1" fill="#FFFFCC"/>
  <rect x="19" y="8" width="1" height="1" fill="#FFFFCC"/>
  <rect x="20" y="8" width="1" height="1" fill="#FFFFCC"/>
  <rect x="21" y="8" width="1" height="1" fill="#FFFFCC"/>
  <rect x="22" y="8" width="1" height="1" fill="#FFFFCC"/>
  <!-- C second row -->
  <rect x="15" y="9" width="1" height="1" fill="#FFFFCC"/>
  <rect x="16" y="9" width="1" height="1" fill="#FFFFFF"/>
  <rect x="17" y="9" width="1" height="1" fill="#FFFFFF"/>
  <rect x="21" y="9" width="1" height="1" fill="#FFFFFF"/>
  <rect x="22" y="9" width="1" height="1" fill="#FFFFFF"/>
  <rect x="23" y="9" width="1" height="1" fill="#FFFFCC"/>
  <!-- C left side -->
  <rect x="14" y="10" width="1" height="1" fill="#FFFFCC"/>
  <rect x="15" y="10" width="1" height="1" fill="#FFFFFF"/>
  <rect x="14" y="11" width="1" height="1" fill="#FFFFCC"/>
  <rect x="15" y="11" width="1" height="1" fill="#FFFFFF"/>
  <rect x="14" y="12" width="1" height="1" fill="#FFFFCC"/>
  <rect x="15" y="12" width="1" height="1" fill="#FFFFFF"/>
  <rect x="14" y="13" width="1" height="1" fill="#FFFFCC"/>
  <rect x="15" y="13" width="1" height="1" fill="#FFFFFF"/>
  <rect x="14" y="14" width="1" height="1" fill="#FFFFCC"/>
  <rect x="15" y="14" width="1" height="1" fill="#FFFFFF"/>
  <rect x="14" y="15" width="1" height="1" fill="#FFFFCC"/>
  <rect x="15" y="15" width="1" height="1" fill="#FFFFFF"/>
  <rect x="14" y="16" width="1" height="1" fill="#FFFFCC"/>
  <rect x="15" y="16" width="1" height="1" fill="#FFFFFF"/>
  <rect x="14" y="17" width="1" height="1" fill="#FFFFCC"/>
  <rect x="15" y="17" width="1" height="1" fill="#FFFFFF"/>
  <rect x="14" y="18" width="1" height="1" fill="#FFFFCC"/>
  <rect x="15" y="18" width="1" height="1" fill="#FFFFFF"/>
  <!-- C bottom row -->
  <rect x="15" y="19" width="1" height="1" fill="#FFFFCC"/>
  <rect x="16" y="19" width="1" height="1" fill="#FFFFFF"/>
  <rect x="17" y="19" width="1" height="1" fill="#FFFFFF"/>
  <rect x="21" y="19" width="1" height="1" fill="#FFFFFF"/>
  <rect x="22" y="19" width="1" height="1" fill="#FFFFFF"/>
  <rect x="23" y="19" width="1" height="1" fill="#FFFFCC"/>
  <!-- C bottom bar -->
  <rect x="16" y="20" width="1" height="1" fill="#FFFFCC"/>
  <rect x="17" y="20" width="1" height="1" fill="#FFFFCC"/>
  <rect x="18" y="20" width="1" height="1" fill="#FFFFCC"/>
  <rect x="19" y="20" width="1" height="1" fill="#FFFFCC"/>
  <rect x="20" y="20" width="1" height="1" fill="#FFFFCC"/>
  <rect x="21" y="20" width="1" height="1" fill="#FFFFCC"/>
  <rect x="22" y="20" width="1" height="1" fill="#FFFFCC"/>

  <!-- "100" text at bottom (small, 3px tall) -->
  <!-- "1" -->
  <rect x="10" y="24" width="1" height="1" fill="#FFFFFF"/>
  <rect x="11" y="24" width="1" height="1" fill="#FFFFFF"/>
  <rect x="11" y="25" width="1" height="1" fill="#FFFFFF"/>
  <rect x="11" y="26" width="1" height="1" fill="#FFFFFF"/>
  <rect x="10" y="26" width="1" height="1" fill="#FFFFFF"/>
  <rect x="12" y="26" width="1" height="1" fill="#FFFFFF"/>
  <!-- "0" first -->
  <rect x="14" y="24" width="1" height="1" fill="#FFFFFF"/>
  <rect x="15" y="24" width="1" height="1" fill="#FFFFFF"/>
  <rect x="16" y="24" width="1" height="1" fill="#FFFFFF"/>
  <rect x="14" y="25" width="1" height="1" fill="#FFFFFF"/>
  <rect x="16" y="25" width="1" height="1" fill="#FFFFFF"/>
  <rect x="14" y="26" width="1" height="1" fill="#FFFFFF"/>
  <rect x="15" y="26" width="1" height="1" fill="#FFFFFF"/>
  <rect x="16" y="26" width="1" height="1" fill="#FFFFFF"/>
  <!-- "0" second -->
  <rect x="18" y="24" width="1" height="1" fill="#FFFFFF"/>
  <rect x="19" y="24" width="1" height="1" fill="#FFFFFF"/>
  <rect x="20" y="24" width="1" height="1" fill="#FFFFFF"/>
  <rect x="18" y="25" width="1" height="1" fill="#FFFFFF"/>
  <rect x="20" y="25" width="1" height="1" fill="#FFFFFF"/>
  <rect x="18" y="26" width="1" height="1" fill="#FFFFFF"/>
  <rect x="19" y="26" width="1" height="1" fill="#FFFFFF"/>
  <rect x="20" y="26" width="1" height="1" fill="#FFFFFF"/>
</svg>
